static pose
nRows=1
nColumns=258

# File generated from solving marker data for model GIL04
name static pose
datacolumns 258
datarows 1
otherdata 1
range 0.283330 0.283330
endheader
time	pelvis_tx	pelvis_ty	pelvis_tz	pelvis_tilt	pelvis_list	pelvis_rotation	hip_flexion_r	hip_adduction_r	hip_rotation_r	knee_angle_r	ankle_angle_r	hip_flexion_l	hip_adduction_l	hip_rotation_l	knee_angle_l	ankle_angle_l	lumbar_extension	lumbar_bending	lumbar_rotation	subtalar_angle_r	mtp_angle_r	subtalar_angle_l	mtp_angle_l	midhip_tx	midhip_ty	midhip_tz	hip_r_tx	hip_r_ty	hip_r_tz	hip_l_tx	hip_l_ty	hip_l_tz	knee_r_tx	knee_r_ty	knee_r_tz	knee_l_tx	knee_l_ty	knee_l_tz	ankle_r_tx	ankle_r_ty	ankle_r_tz	ankle_l_tx	ankle_l_ty	ankle_l_tz	midasis_tx	midasis_ty	midasis_tz	asis_r_tx	asis_r_ty	asis_r_tz	asis_l_tx	asis_l_ty	asis_l_tz	psis_r_tx	psis_r_ty	psis_r_tz	psis_l_tx	psis_l_ty	psis_l_tz	epicondLat_r_tx	epicondLat_r_ty	epicondLat_r_tz	epicondLat_l_tx	epicondLat_l_ty	epicondLat_l_tz	epicondMed_r_tx	epicondMed_r_ty	epicondMed_r_tz	epicondMed_l_tx	epicondMed_l_ty	epicondMed_l_tz	malleolusLat_r_tx	malleolusLat_r_ty	malleolusLat_r_tz	malleolusLat_l_tx	malleolusLat_l_ty	malleolusLat_l_tz	malleolusMedv_r_tx	malleolusMedv_r_ty	malleolusMedv_r_tz	malleolusMedv_l_tx	malleolusMedv_l_ty	malleolusMedv_l_tz	heel_r_tx	heel_r_ty	heel_r_tz	heel_l_tx	heel_l_ty	heel_l_tz	sternalnotch_tx	sternalnotch_ty	sternalnotch_tz	xyphoidprocess_tx	xyphoidprocess_ty	xyphoidprocess_tz	neck_tx	neck_ty	neck_tz	subclavicle_r_tx	subclavicle_r_ty	subclavicle_r_tz	subclavicle_l_tx	subclavicle_l_ty	subclavicle_l_tz	toe_r_tx	toe_r_ty	toe_r_tz	toe_l_tx	toe_l_ty	toe_l_tz	thighwand_r_tx	thighwand_r_ty	thighwand_r_tz	thighwand_l_tx	thighwand_l_ty	thighwand_l_tz	upperleg1_r_tx	upperleg1_r_ty	upperleg1_r_tz	upperleg1_l_tx	upperleg1_l_ty	upperleg1_l_tz	upperleg2_r_tx	upperleg2_r_ty	upperleg2_r_tz	upperleg2_l_tx	upperleg2_l_ty	upperleg2_l_tz	shankwand_r_tx	shankwand_r_ty	shankwand_r_tz	shankwand_l_tx	shankwand_l_ty	shankwand_l_tz	lowerleg1_r_tx	lowerleg1_r_ty	lowerleg1_r_tz	lowerleg1_l_tx	lowerleg1_l_ty	lowerleg1_l_tz	ground_marker_px	ground_marker_py	ground_marker_pz	ground_marker_px	ground_marker_py	ground_marker_pz	ground_marker_px	ground_marker_py	ground_marker_pz	ground_marker_px	ground_marker_py	ground_marker_pz	ground_marker_px	ground_marker_py	ground_marker_pz	ground_marker_px	ground_marker_py	ground_marker_pz	ground_marker_px	ground_marker_py	ground_marker_pz	ground_marker_px	ground_marker_py	ground_marker_pz	ground_marker_px	ground_marker_py	ground_marker_pz	ground_marker_px	ground_marker_py	ground_marker_pz	ground_marker_px	ground_marker_py	ground_marker_pz	ground_marker_px	ground_marker_py	ground_marker_pz	ground_marker_px	ground_marker_py	ground_marker_pz	ground_marker_px	ground_marker_py	ground_marker_pz	ground_marker_px	ground_marker_py	ground_marker_pz	ground_marker_px	ground_marker_py	ground_marker_pz	ground_marker_px	ground_marker_py	ground_marker_pz	ground_marker_px	ground_marker_py	ground_marker_pz	ground_marker_px	ground_marker_py	ground_marker_pz	ground_marker_px	ground_marker_py	ground_marker_pz	ground_marker_px	ground_marker_py	ground_marker_pz	ground_marker_px	ground_marker_py	ground_marker_pz	ground_marker_px	ground_marker_py	ground_marker_pz	ground_marker_px	ground_marker_py	ground_marker_pz	ground_marker_px	ground_marker_py	ground_marker_pz	ground_marker_px	ground_marker_py	ground_marker_pz	ground_marker_px	ground_marker_py	ground_marker_pz	ground_marker_px	ground_marker_py	ground_marker_pz	ground_marker_px	ground_marker_py	ground_marker_pz	ground_marker_px	ground_marker_py	ground_marker_pz	ground_marker_px	ground_marker_py	ground_marker_pz	ground_marker_px	ground_marker_py	ground_marker_pz	ground_marker_px	ground_marker_py	ground_marker_pz	ground_marker_px	ground_marker_py	ground_marker_pz	ground_marker_px	ground_marker_py	ground_marker_pz	ground_marker_px	ground_marker_py	ground_marker_pz	ground_marker_px	ground_marker_py	ground_marker_pz	ground_marker_px	ground_marker_py	ground_marker_pz	ground_marker_px	ground_marker_py	ground_marker_pz
  0.28333000	  1.39741423	  0.76167578	 -0.22654535	 -0.50388660	 -0.33064866	 -1.55428078	  1.30823648	 -3.75059080	  0.00211932	  0.65606701	 -0.00017583	 -0.13486557	 -4.12741385	  0.02861315	 -0.12319929	 -0.00001767	-10.30006049	 -2.85494546	  2.42092635	  0.00000000	  0.00000000	  0.00000000	  0.00000000	  1.36106087	  0.70139769	 -0.22697278	  1.35877704	  0.70378878	 -0.16414540	  1.36334475	  0.69900665	 -0.28980017	  1.33998928	  0.37424858	 -0.13918780	  1.34140342	  0.37800438	 -0.30807709	  1.35537829	  0.05754447	 -0.10956893	  1.33640047	  0.05927092	 -0.34362625	  1.43640612	  0.75308855	 -0.22620101	  1.43301491	  0.75663888	 -0.13291404	  1.43979735	  0.74953823	 -0.31948791	  1.29805031	  0.81646412	 -0.21427398	  1.29885097	  0.80944553	 -0.26875259	  1.33801068	  0.37817146	 -0.08887931	  1.34126884	  0.38085577	 -0.35799552	  1.33733076	  0.37581965	 -0.18936139	  1.34280907	  0.36628403	 -0.25490111	  1.34537874	  0.06003967	 -0.07769372	  1.33040904	  0.06312979	 -0.37738215	  1.35185103	  0.06522373	 -0.13723250	  1.33268140	  0.06026494	 -0.31380958	  1.29986032	  0.03897453	 -0.11248088	  1.28331528	  0.04085041	 -0.33856450	  1.39952228	  1.11519607	 -0.24395588	  1.45252140	  0.98103282	 -0.23978451	  1.32381627	  1.14985676	 -0.24456264	  1.39864034	  1.12787769	 -0.18372676	  1.40443101	  1.12715326	 -0.29898025	  1.45140377	  0.04001979	 -0.09917964	  1.43213160	  0.03861374	 -0.35744967	  1.34158709	  0.48505933	 -0.02079131	  1.47760577	  0.47572969	 -0.33437749	  1.38148723	  0.53821400	 -0.09130016	  1.41333943	  0.52997739	 -0.27368818	  1.38616459	  0.45368816	 -0.09868394	  1.39671976	  0.44379923	 -0.27471906	  1.31706589	  0.16808997	 -0.01507172	  1.42077780	  0.16320443	 -0.37174040	  1.32953890	  0.21931134	 -0.07884347	  1.36046948	  0.21646233	 -0.34396792	  1.36224747	  0.70107597	 -0.22786832	  1.35986948	  0.70346773	 -0.16504434	  1.36462545	  0.69868422	 -0.29069230	  1.34071565	  0.37424171	 -0.13953100	  1.34194791	  0.37807620	 -0.30846536	  1.35532343	  0.05746743	 -0.10956751	  1.33643138	  0.05931915	 -0.34370172	  1.43756652	  0.75280344	 -0.22698666	  1.43403280	  0.75635767	 -0.13362947	  1.44110036	  0.74924928	 -0.32034385	  1.29837835	  0.81650221	 -0.21492878	  1.29968405	  0.80922055	 -0.26923233	  1.33868074	  0.37825799	 -0.08923212	  1.34178329	  0.38085532	 -0.35838780	  1.33760262	  0.37574968	 -0.18944703	  1.34334254	  0.36644435	 -0.25508410	  1.34528756	  0.06001820	 -0.07770807	  1.33042395	  0.06315458	 -0.37745747	  1.35189497	  0.06522241	 -0.13727041	  1.33266103	  0.06030860	 -0.31386554	  1.29991198	  0.03899533	 -0.11251263	  1.28333735	  0.04083247	 -0.33862084	  1.39841557	  1.11528707	 -0.24414839	  1.45288944	  0.98172057	 -0.23975286	  1.32267427	  1.14900851	 -0.24549316	  1.39707005	  1.12793016	 -0.18385610	  1.40348458	  1.12732446	 -0.29920435	  1.45142221	  0.04006184	 -0.09917933	  1.43213630	  0.03864796	 -0.35746154	  1.34253335	  0.48515648	 -0.02115129	  1.47829592	  0.47566804	 -0.33511454	  1.38231838	  0.53820574	 -0.09175593	  1.41407454	  0.53001738	 -0.27418754	  1.38680971	  0.45367602	 -0.09901293	  1.39732230	  0.44385791	 -0.27510020	  1.31742990	  0.16817109	 -0.01524545	  1.42094445	  0.16304216	 -0.37188715	  1.32975626	  0.21939458	 -0.07899337	  1.36081529	  0.21649984	 -0.34417093
